<svg width="51" height="63" viewBox="0 0 51 63" fill="none" xmlns="http://www.w3.org/2000/svg">
<path d="M4.2192 30.4508L28.5966 4.49295C29.4928 3.53858 31.0102 3.85343 31.5049 5.0957L50.0402 51.6246C50.4578 52.6745 49.465 53.733 48.479 53.287L44.0186 51.2717V56.1906C44.0186 56.3511 44.0071 56.5079 43.9841 56.661C43.7724 58.0711 42.6254 58.9042 41.2414 58.9042C39.7067 58.9042 39.6146 57.8249 39.6146 56.1906V47.5363L34.5295 46.9838L32.2286 45.9437V58.8466C32.2286 59.0071 32.2171 59.1639 32.1941 59.3171C31.9824 60.7272 30.8354 60.5802 29.4514 60.5802C27.9166 60.5802 27.8246 60.481 27.8246 58.8479V42.2095L4.78753 32.3228C3.61865 31.796 3.32413 31.4052 4.2192 30.4508Z" fill="#FFE077"/>
<path d="M4.21921 30.4508L28.5966 4.49295L6.5213 28.0006C5.62508 28.9549 5.92075 30.5709 7.08733 31.0977L28.2721 40.6683C28.6978 40.8606 28.9739 41.3041 28.9739 41.7966V56.3988C28.9739 58.0332 30.2176 59.3575 31.7523 59.3575C31.903 59.3575 32.0503 59.344 32.1941 59.3195C31.9824 60.7296 30.8354 61.8078 29.4514 61.8078C27.9166 61.8078 26.673 60.4834 26.673 58.8491V43.4346L4.78639 33.5479C3.61866 33.0211 3.32414 31.4052 4.21921 30.4508Z" fill="#FFC344"/>
<path d="M35.328 43.8561L40.0633 45.9951C40.489 46.1875 40.7651 46.631 40.7651 47.1235V53.7416C40.7651 55.3759 42.0087 56.7002 43.5435 56.7002C43.6942 56.7002 43.8415 56.6867 43.9853 56.6622C43.7736 58.0724 42.6266 59.1505 41.2425 59.1505C39.7078 59.1505 38.4641 57.8261 38.4641 56.1918V48.7627L34.5295 46.985V44.4196C34.5284 43.981 34.9494 43.6845 35.328 43.8561Z" fill="#FFC344"/>
<path d="M24.4555 21.514C24.1649 19.6072 25.3809 17.8105 27.1715 17.501C28.9622 17.1916 30.6494 18.4865 30.94 20.3933C31.2306 22.3001 30.0146 24.0968 28.2239 24.4062C26.4333 24.7157 24.7461 23.4208 24.4555 21.514Z" fill="#FF8086"/>
<path d="M26.3048 37.1179C24.4908 37.1179 23.0202 35.552 23.0202 33.6202C23.0202 31.6885 24.4908 30.1225 26.3048 30.1225C28.1189 30.1225 29.5894 31.6885 29.5894 33.6202C29.5894 35.552 28.1189 37.1179 26.3048 37.1179Z" fill="#FF8086"/>
<path d="M37.63 43.5694C35.816 43.5694 34.3454 42.0034 34.3454 40.0717C34.3454 38.14 35.816 36.574 37.63 36.574C39.4441 36.574 40.9146 38.14 40.9146 40.0717C40.9146 42.0034 39.4441 43.5694 37.63 43.5694Z" fill="#FF8086"/>
<path d="M6.95503 35.2913C7.27486 34.9507 7.53947 34.539 7.72355 34.0674C9.58156 29.3298 13.2608 23.8278 17.8189 18.9739C22.3771 14.1199 27.5427 10.202 31.9916 8.22344C33.7196 7.45407 34.5825 5.40812 34.0153 3.54348C33.9854 3.44425 33.8358 3.34501 33.7967 3.247C33.0362 1.30764 31.0586 0.637496 29.2385 1.4473C23.8842 3.82771 18.1491 8.10583 12.8811 13.7157C7.6131 19.3255 3.59565 25.4327 1.36029 31.1344C0.599824 33.0738 1.22913 35.1785 3.05033 35.9883C3.14237 36.03 3.23556 36.188 3.32875 36.2211C4.63223 36.672 6.02775 36.2787 6.95503 35.2913Z" fill="#F4AA73"/>
<path d="M1.13131 31.1371C3.36668 25.4354 7.49918 19.2057 12.7672 13.5959C18.0352 7.98603 23.8854 3.5854 29.2396 1.20499C31.0608 0.395185 33.1524 1.31035 33.9129 3.24972C33.952 3.34772 33.9842 3.44696 34.0153 3.54619C33.2329 3.27667 32.3597 3.29137 31.5406 3.65523C26.1863 6.03564 20.3361 10.4363 15.0681 16.0461C9.80012 21.6559 5.66763 27.8857 3.43226 33.5874C3.09057 34.4597 3.07676 35.3895 3.32987 36.2226C3.23668 36.1908 3.14349 36.154 3.0503 36.1136C1.23025 35.305 0.370852 33.0765 1.13131 31.1371Z" fill="#E29A6C"/>
<path d="M27.6992 16.5359C28.8071 16.5359 29.8482 16.9953 30.6317 17.8296C31.4152 18.6639 31.8466 19.7727 31.8466 20.9524C31.8466 22.1322 31.4152 23.241 30.6317 24.0753C29.8482 24.9096 28.8071 25.369 27.6992 25.369C26.5913 25.369 25.5501 24.9096 24.7666 24.0753C23.9831 23.241 23.5517 22.1322 23.5517 20.9524C23.5517 19.7727 23.9831 18.6639 24.7666 17.8296C25.5489 16.9953 26.5913 16.5359 27.6992 16.5359ZM25.9861 22.7767C26.444 23.2642 27.0514 23.5325 27.6992 23.5325C28.3457 23.5325 28.9543 23.2642 29.4122 22.7767C29.8701 22.2891 30.1221 21.6422 30.1221 20.9524C30.1221 20.2627 29.8701 19.6158 29.4122 19.1282C28.9543 18.6406 28.3469 18.3723 27.6992 18.3723C27.0526 18.3723 26.444 18.6406 25.9861 19.1282C25.5282 19.6158 25.2763 20.2627 25.2763 20.9524C25.2763 21.6422 25.5294 22.2903 25.9861 22.7767Z" fill="black"/>
<path d="M29.2385 30.4961C30.8561 32.2187 30.8561 35.0205 29.2385 36.743C28.4297 37.6043 27.3678 38.0343 26.306 38.0343C25.2441 38.0343 24.181 37.6043 23.3734 36.743C21.7558 35.0205 21.7558 32.2187 23.3734 30.4961C24.9887 28.7748 27.621 28.7748 29.2385 30.4961ZM24.5918 35.4432C25.5363 36.449 27.0722 36.449 28.0167 35.4432C28.9613 34.4373 28.9613 32.8006 28.0167 31.796C27.545 31.2937 26.9238 31.0413 26.3037 31.0413C25.6836 31.0413 25.0634 31.2925 24.5906 31.7948C23.6484 32.8018 23.6484 34.4386 24.5918 35.4432Z" fill="black"/>
<path d="M40.5638 43.1945C39.755 44.0558 38.6931 44.4858 37.6312 44.4858C36.5693 44.4858 35.5074 44.0558 34.6986 43.1945C33.0811 41.472 33.0811 38.6701 34.6986 36.9476C35.4821 36.1133 36.5233 35.6539 37.6312 35.6539C38.7391 35.6539 39.7803 36.1133 40.5638 36.9476C42.1802 38.6701 42.1802 41.472 40.5638 43.1945ZM39.3431 38.2475C38.8852 37.7599 38.2778 37.4916 37.63 37.4916C36.9835 37.4916 36.3749 37.7599 35.917 38.2475C35.4591 38.7351 35.2072 39.3819 35.2072 40.0717C35.2072 40.7602 35.4591 41.4083 35.917 41.8959C36.8615 42.9017 38.3974 42.9017 39.342 41.8959C40.2876 40.8888 40.2876 39.2533 39.3431 38.2475Z" fill="black"/>
<path d="M17.9673 32.237C17.9179 32.237 17.8684 32.2321 17.8189 32.2235C17.3495 32.1366 17.0343 31.6612 17.116 31.1601L18.2803 24.0238C18.3619 23.524 18.8083 23.1895 19.2789 23.2753C19.7483 23.3623 20.0635 23.8376 19.9818 24.3387L18.8175 31.475C18.7427 31.9222 18.3792 32.237 17.9673 32.237Z" fill="black"/>
<path d="M32.6243 27.4125L37.0007 28.2223C37.4701 28.3093 37.7854 28.7846 37.7037 29.2857C37.6312 29.7329 37.2665 30.0477 36.8546 30.0477C36.8051 30.0477 36.7557 30.0428 36.7062 30.0343L32.3298 29.2245C31.8604 29.1375 31.5452 28.6621 31.6269 28.1611C31.7086 27.66 32.1549 27.3255 32.6243 27.4125Z" fill="black"/>
<path d="M0.334058 30.7816C2.45208 25.38 6.28775 19.4394 11.1358 14.055C11.466 13.6887 12.0113 13.6765 12.3565 14.0281C12.7005 14.3797 12.712 14.9616 12.3818 15.3279C7.67752 20.5531 3.96495 26.2928 1.92746 31.4909C1.35683 32.9452 2.02065 34.6591 3.38396 35.2655C4.40328 35.7188 5.56525 35.4738 6.34527 34.6432C6.59492 34.3773 6.7905 34.0649 6.92856 33.7145C8.82799 28.8692 12.5762 23.2606 17.2103 18.3258C21.8444 13.391 27.1124 9.40079 31.6614 7.37812C33.0397 6.76433 33.6931 5.07122 33.1179 3.60352C32.5484 2.15176 30.9389 1.44486 29.5733 2.05252C24.9369 4.1144 19.7908 7.82161 15.0831 12.493C14.7345 12.8397 14.188 12.8189 13.8636 12.4464C13.5392 12.0752 13.5576 11.4933 13.9073 11.1478C18.8313 6.26203 24.0188 2.53032 28.9095 0.35573C31.1425 -0.636618 33.7817 0.522346 34.7113 2.89418C35.4418 4.75636 34.9632 6.83907 33.6609 8.14995L38.0592 19.1907C38.2455 19.6575 38.0408 20.1978 37.6013 20.395C37.4908 20.4453 37.3769 20.4685 37.2642 20.4685C36.9283 20.4685 36.6084 20.2578 36.4692 19.9087L32.1791 9.13984C27.8625 11.0939 22.8614 14.9065 18.431 19.6244C14.0005 24.3424 10.4202 29.668 8.58524 34.2646L27.01 42.5881C27.3287 42.7326 27.5358 43.0659 27.5358 43.4346V58.8479C27.5358 59.9725 28.3952 60.8877 29.4502 60.8877C30.5063 60.8877 31.3657 59.9725 31.3657 58.8479V54.6261C31.3657 54.1189 31.7523 53.7073 32.2286 53.7073C32.7049 53.7073 33.0914 54.1189 33.0914 54.6261V58.8479C33.0914 60.9857 31.4578 62.7254 29.4502 62.7254C27.4426 62.7254 25.8089 60.9857 25.8089 58.8479V44.0435L7.65566 35.8426C7.62575 35.8756 7.59699 35.91 7.56707 35.9418C6.71573 36.8484 5.58711 37.3286 4.43434 37.3286C3.85795 37.3286 3.27581 37.2086 2.71899 36.9611C0.490523 35.97 -0.597824 33.1596 0.334058 30.7816Z" fill="black"/>
<path d="M33.0903 50.6212C33.0903 51.1284 32.7037 51.54 32.2274 51.54C31.7511 51.54 31.3646 51.1284 31.3646 50.6212V45.9449C31.3646 45.6362 31.5095 45.3483 31.7511 45.1792C31.9927 45.0089 32.2976 44.9783 32.5645 45.0996L38.8012 47.9173C39.1199 48.0619 39.327 48.3951 39.327 48.7639V56.193C39.327 57.3177 40.1864 58.2316 41.2425 58.2316C42.2987 58.2316 43.1569 57.3165 43.1569 56.193V51.2742C43.1569 50.9654 43.3019 50.6788 43.5435 50.5085C43.7851 50.3382 44.09 50.3075 44.3569 50.4288L48.8172 52.4442C48.9944 52.5238 49.1187 52.4319 49.1773 52.3694C49.236 52.3069 49.3223 52.1746 49.2475 51.986L37.9487 23.6244C37.7624 23.1576 37.9671 22.6174 38.4066 22.4201C38.845 22.2217 39.3523 22.4397 39.5375 22.9077L50.8352 51.2644C51.1642 52.0889 50.9916 53.031 50.3968 53.6656C49.8021 54.299 48.9173 54.4828 48.1419 54.1324L44.8815 52.6598V56.1906C44.8815 58.3284 43.2478 60.0681 41.2402 60.0681C39.2327 60.0681 37.599 58.3284 37.599 56.1906V49.3703L33.0891 47.333L33.0903 50.6212Z" fill="black"/>
</svg>
