<svg width="303" height="161" viewBox="0 0 303 161" fill="none" xmlns="http://www.w3.org/2000/svg">
<path d="M297.741 68.0537C297.741 68.0537 301.247 71.3072 301.206 78.7243C301.165 86.1462 293.503 98.994 288.21 99.1946C282.918 99.3952 278.951 96.308 286.8 90.1728C294.641 84.0327 299.211 74.9032 297.741 68.0537Z" fill="#A87340"/>
<path d="M29.4717 83.5532C25.3742 82.9123 23.6027 76.7819 25.5081 69.8395C27.4136 62.9116 32.2741 57.8136 36.3716 58.4448C40.4691 59.0808 42.2443 65.216 40.3388 72.1536C38.4333 79.0863 33.5655 84.1892 29.4717 83.5532Z" fill="url(#paint0_radial)"/>
<path d="M151.824 27.1277C89.059 27.0152 31.8241 41.0176 0.469398 61.6347C0.458233 61.6934 0.447068 61.7521 0.439625 61.8011C0.316811 62.5594 0.208884 63.3226 0.112122 64.0859C0.324254 64.9714 0.309368 65.857 0.134451 66.6936C0.305646 67.6183 0.447068 68.5527 0.551274 69.5068C0.56616 69.6389 0.573603 69.771 0.584768 69.9031C1.29188 71.6008 1.87989 73.4012 2.33393 75.2799C2.70237 76.2633 3.03732 77.2712 3.32761 78.3133C3.81142 79.2429 4.25429 80.2067 4.65995 81.2048C6.54681 83.7538 8.1099 86.7284 9.24872 90.0211C11.6417 92.756 13.6328 96.1123 15.0433 99.9187C15.6313 100.741 16.1933 101.607 16.7106 102.512C24.9838 111.827 33.6291 120.531 42.5238 128.785C44.9056 130.047 47.1163 131.803 49.0738 133.976C49.8554 134.568 50.6146 135.204 51.3403 135.908C54.5819 137.097 57.5926 139.176 60.168 141.965C62.8029 142.807 65.3001 144.22 67.5517 146.138C70.0154 146.525 72.3898 147.425 74.6042 148.766C75.6351 148.937 76.6623 149.128 77.682 149.382C82.5722 150.6 87.2763 152.572 92.0214 154.402C92.1145 154.426 92.2038 154.451 92.2968 154.475C93.6887 154.837 95.0285 155.282 96.3236 155.83C106.004 156.584 116.063 156.99 126.424 157.01C216.573 157.171 295.345 128.227 302.357 92.3597C309.372 56.4927 241.977 27.2892 151.824 27.1277Z" fill="url(#paint1_radial)"/>
<path d="M151.969 22.1716C90.5477 22.0639 34.4181 35.4646 2.65771 55.3625C2.63538 55.5044 2.60933 55.6462 2.57956 55.7881C2.42697 56.5465 2.11808 57.2314 1.83151 57.9164C1.50773 58.6894 1.17279 59.4526 0.841561 60.2207C0.800623 60.3137 0.763406 60.4018 0.722468 60.4947C0.722468 60.4996 0.718747 60.5045 0.718747 60.5094C0.581047 61.0623 0.488006 61.5026 0.439625 61.8059C0.316811 62.5643 0.208884 63.3275 0.112122 64.0907C0.324254 64.9763 0.309368 65.8618 0.134451 66.6985C0.305646 67.6231 0.447068 68.5576 0.551274 69.5117C0.56616 69.6438 0.573603 69.7758 0.584768 69.9079C1.29188 71.6057 1.87989 73.4061 2.33393 75.2848C2.70237 76.2682 3.03732 77.2761 3.32761 78.3182C3.81142 79.2478 4.25429 80.2116 4.65995 81.2097C6.54682 83.7587 8.1099 86.7333 9.24872 90.026C11.6417 92.7609 13.6328 96.1172 15.0433 99.9236C15.6313 100.746 16.1933 101.612 16.7106 102.517C24.9875 111.832 33.6328 120.536 42.5312 128.794C44.9093 130.057 47.12 131.813 49.0738 133.98C49.8554 134.572 50.6146 135.213 51.3403 135.913C54.5819 137.102 57.5927 139.181 60.168 141.97C62.7992 142.807 65.2964 144.221 67.5443 146.138C69.7884 146.491 71.9656 147.269 74.0088 148.418C90.2499 150.737 107.917 152.024 126.562 152.058C216.711 152.22 295.483 123.276 302.494 87.4134C309.513 51.5365 242.122 22.333 151.969 22.1716Z" fill="#9A6939"/>
<path d="M151.166 21.5356C86.4725 21.653 28.6719 35.4939 2.71726 54.9564C2.68004 55.2353 2.63538 55.5092 2.57956 55.7881C2.42697 56.5464 2.11808 57.2314 1.83151 57.9164C1.50773 58.6894 1.17279 59.4526 0.84156 60.2207C0.800623 60.3137 0.763406 60.4018 0.722468 60.4947C0.722468 60.4996 0.718747 60.5045 0.718747 60.5094C0.581047 61.0622 0.488006 61.5026 0.439625 61.8059C0.316811 62.5643 0.208884 63.3275 0.112122 64.0907C0.324254 64.9763 0.309368 65.8618 0.134451 66.6984C0.305646 67.6231 0.447068 68.5576 0.551274 69.5116C0.56616 69.6437 0.573603 69.7758 0.584768 69.9079C1.29188 71.6056 1.87989 73.4061 2.33393 75.2848C2.70237 76.2682 3.03732 77.2761 3.32761 78.3182C3.81142 79.2478 4.25429 80.2116 4.65995 81.2097C6.54681 83.7587 8.1099 86.7333 9.24872 90.026C11.6417 92.7609 13.6328 96.1172 15.047 99.9285C15.6313 100.746 16.1858 101.597 16.6994 102.492C18.9957 105.075 21.318 107.624 23.67 110.12C49.7437 120.213 88.1881 126.47 132.103 126.392C216.662 126.24 289.476 102.649 294.742 73.6899C300.005 44.7359 235.725 21.3839 151.166 21.5356Z" fill="#A97C50"/>
<path d="M151.493 14.8426C82.3526 13.0128 21.0723 30.3421 2.69865 55.0836C2.66516 55.3185 2.62794 55.5533 2.57956 55.793C2.42697 56.5514 2.11808 57.2363 1.83151 57.9213C1.50773 58.6943 1.17279 59.4575 0.84156 60.2257C0.800623 60.3186 0.763406 60.4067 0.722468 60.4996C0.722468 60.5045 0.718747 60.5094 0.718747 60.5143C0.581047 61.0672 0.488006 61.5075 0.439625 61.8108C0.316811 62.5692 0.208884 63.3324 0.112122 64.0956C0.324254 64.9763 0.309368 65.8667 0.134451 66.6985C0.305646 67.6232 0.447068 68.5625 0.551274 69.5166C0.56616 69.6487 0.573603 69.7808 0.584768 69.9129C1.29188 71.6106 1.87989 73.411 2.33393 75.2897C2.70237 76.2731 3.03732 77.281 3.32761 78.3231C3.81142 79.2527 4.25429 80.2165 4.65995 81.2146C6.55054 83.7636 8.1099 86.7382 9.24872 90.0309C10.7709 91.7727 12.133 93.759 13.283 95.9607C35.5569 112.429 78.8357 124.161 130.51 125.521C209.77 127.615 278.721 104.542 284.515 73.9785C290.31 43.4149 230.753 16.9415 151.493 14.8426Z" fill="#603913"/>
<path d="M267.105 83.4602C263.629 83.4064 258.731 85.0797 257.972 89.0084C257.217 92.9371 253.789 93.759 252.472 91.5476C251.15 89.3362 248.947 90.618 246.703 93.2061C244.463 95.7992 239.576 99.6594 239.323 100.971C239.074 102.282 236.085 116.685 236.015 119.313C235.97 121.069 234.131 135.663 232.713 142.18C232.192 142.322 231.671 142.498 231.147 142.704C230.67 132.831 234.604 123.036 234.5 113.593C234.392 103.955 235.583 100.031 234.061 100.007C232.539 99.9872 228.181 97.7219 228.649 96.4156C229.118 95.1093 230.276 92.5016 233.302 90.3587C236.327 88.2158 238.486 86.0582 241.612 85.6717C244.738 85.2803 267.098 69.8737 267.812 72.9511C267.816 72.956 270.581 83.5141 267.105 83.4602Z" fill="#603913"/>
<path d="M241.564 93.4508C244.358 92.5212 248.415 90.0554 249.55 89.6835C250.685 89.3166 250.503 87.7559 252.658 86.6208C254.813 85.4857 258.914 83.7978 259.725 83.6168C260.536 83.4358 265.449 76.508 265.896 79.238C265.896 79.238 267.782 81.0189 267.447 86.2734C267.116 91.5231 267.079 91.7188 265.736 98.7053C264.392 105.692 263.398 107.815 262.356 113.251C261.31 118.686 261.534 117.522 260.566 122.566C259.595 127.61 259.554 126.832 258.717 131.681C258.597 132.361 258.512 132.919 258.441 133.403C257.838 133.711 257.232 134.044 256.632 134.426C254.612 134.391 252.539 134.91 250.466 135.903C251.117 132.826 251.761 130.331 251.578 130.008C251.363 129.616 249.159 128.995 248.411 132.88C248.017 134.934 247.734 136.128 247.373 137.733C246.923 138.051 246.476 138.384 246.026 138.741C245.732 138.702 245.43 138.672 245.129 138.667C243.681 138.628 242.207 138.888 240.722 139.387C241.318 136.363 242.111 132.498 240.529 135.086C238.817 137.89 237.749 139.675 237.057 140.977C235.776 141.026 234.478 141.285 233.175 141.75C233.331 140.58 233.488 139.118 233.35 138.672C233.115 137.89 232.773 136.133 232.773 136.133C232.773 136.133 232.699 130.487 232.996 128.936C233.294 127.385 237.109 108.564 237.109 108.564L238.233 97.6779C238.229 97.6779 238.769 94.3803 241.564 93.4508Z" fill="#603913"/>
<path d="M154.08 6.36385C75.5237 5.10647 6.82622 30.1562 0.640875 62.3099C0.33198 63.9097 0.190558 65.4998 0.201723 67.0752C0.339423 67.8775 0.462237 68.6897 0.551556 69.5165C0.566442 69.6486 0.573886 69.7807 0.58505 69.9079C1.29216 71.6056 1.88018 73.4061 2.33422 75.2897C2.70266 76.2731 3.0376 77.281 3.32789 78.3231C3.8117 79.2478 4.25457 80.2116 4.65651 81.2097C5.21103 81.9582 5.7395 82.741 6.23448 83.5581C22.6952 105.614 71.2997 121.842 131.683 122.806C210.239 124.063 278.933 99.0185 285.118 66.8648C291.304 34.7062 232.636 7.62123 154.08 6.36385Z" fill="#DCA927"/>
<path d="M276.465 56.7471C271.303 83.5728 207.656 104.366 134.299 103.192C60.9455 102.018 5.6607 79.3212 10.8226 52.4955C15.9845 25.6746 79.6318 4.88141 152.985 6.05072C226.342 7.22982 281.627 29.9213 276.465 56.7471Z" fill="#FFD372"/>
<path d="M266.885 66.5517C266.885 66.5517 272.148 76.6254 268.508 76.6009C264.868 76.5765 260.134 78.2154 260.231 81.9827C260.328 85.745 256.938 86.5621 255.062 84.4583C253.186 82.3545 251.173 83.5972 249.42 86.0924C247.663 88.5925 243.439 92.3255 243.473 93.5829C243.506 94.8353 243.633 108.642 244.154 111.157C244.675 113.672 247.499 143.805 244.522 134.166C241.545 124.523 243.569 114.919 241.284 105.702C238.999 96.4841 239.357 92.7218 237.764 92.712C236.171 92.7022 231.113 90.5789 231.307 89.3264C231.5 88.069 232.118 85.564 234.794 83.4896C237.47 81.4152 239.237 79.3407 242.408 78.9395C245.587 78.5432 265.445 63.6162 266.885 66.5517Z" fill="#FFD372"/>
<path d="M47.2238 29.4027C45.0727 34.5839 35.8431 29.6571 34.12 31.8196C32.3969 33.9821 21.6042 44.7555 21.6042 44.7555C21.6042 44.7555 17.2871 49.0658 17.101 53.4446C16.9112 57.8185 16.8293 58.2588 18.7646 61.7912C20.6998 65.3236 22.5792 73.6801 26.6358 76.371C30.6961 79.0618 32.8323 80.4122 38.0947 81.3711C43.3571 82.3349 48.7385 81.5424 50.0411 81.5668C51.3474 81.5864 53.7367 81.6255 53.7367 81.6255C53.7367 81.6255 51.7047 76.3367 48.612 75.412C45.5193 74.4873 41.3921 74.4188 38.6864 72.6233C35.9808 70.8277 30.2681 67.6672 30.2681 67.6672C30.2681 67.6672 27.9198 60.6219 27.1196 57.9849C26.3195 55.3429 25.136 53.5718 26.3269 49.648C27.5141 45.7242 28.2882 43.9873 29.6726 43.5715C31.0608 43.1556 37.4992 37.9989 39.0214 38.0283C40.5435 38.0527 49.267 36.8736 52.2443 33.8598C55.2216 30.8411 50.4617 27.2598 60.2235 25.2294C69.9853 23.1941 71.9764 21.9123 71.9764 21.9123C71.9764 21.9123 79.4978 22.47 71.4442 20.151C63.3906 17.8319 55.3816 22.0835 55.3816 22.0835C55.3816 22.0835 48.8502 25.4887 47.2238 29.4027Z" fill="#FEE093"/>
<path d="M178.192 98.2503C178.192 98.2503 176.602 100.853 175.132 101.704C173.659 102.556 170.268 102.067 169.401 102.052C168.534 102.037 164.57 101.098 163.234 102.389C161.895 103.686 155.244 103.138 153.856 103.554C152.468 103.965 143.409 101.196 143.409 101.196C143.409 101.196 138.664 99.8062 136.461 101.083C134.25 102.365 129.088 103.158 126.48 103.114C123.871 103.069 117.656 102.531 115.266 102.497C112.877 102.463 110.655 101.548 110.655 101.548C110.655 101.548 110.473 100.227 112.646 100.266C114.82 100.3 113.819 99.8502 118.597 99.9236C123.376 100.002 124.764 99.586 127.589 99.63C130.413 99.6741 132.017 99.2631 136.882 98.901C141.746 98.539 143.35 98.128 147.477 98.1916C151.604 98.2601 151.604 98.2601 156.167 98.3335C160.73 98.4069 181.255 94.7913 178.192 98.2503Z" fill="#FEE093"/>
<path d="M194.079 10.2926C194.079 10.2926 186.859 9.29938 186.208 9.28959C185.557 9.27981 179.557 8.74653 178.255 8.72696C176.952 8.7025 168.043 8.56061 166.524 8.53615C165.002 8.51169 159.137 8.41873 159.137 8.41873C159.137 8.41873 155.843 9.68099 159.282 11.0509C162.725 12.4208 166.498 12.0441 171.281 12.1223C176.059 12.1957 181.057 12.2789 185.62 12.3523C190.183 12.4257 192.788 12.4648 195.832 12.5137C198.873 12.5627 205.393 12.6654 205.393 12.6654C205.393 12.6654 196.975 7.70932 194.079 10.2926Z" fill="#FEE093"/>
<path d="M176.078 33.7082C176.383 33.6201 180.298 34.9411 183.052 34.2023C185.81 33.4733 189.152 31.1885 192.438 31.2423C195.721 31.2913 199.167 32.5144 200.722 34.4861C202.282 36.4578 206.082 38.8551 205.01 40.3962C203.938 41.9325 193.201 38.8453 192.851 38.6447C192.501 38.4392 189.115 37.4167 186.323 38.3463C183.532 39.2759 166.867 36.2816 176.078 33.7082Z" fill="#FFD888"/>
<path d="M163.052 63.67C163.283 64.0369 165.136 66.4294 166.13 67.809C167.123 69.1838 169.498 71.953 168.441 72.907C167.384 73.866 166.58 75.0206 163.636 73.2201C160.689 71.4197 160.317 70.8326 157.362 70.588C154.407 70.3482 150.648 68.7288 150.484 67.5595C150.32 66.3902 149.948 62.2952 149.948 62.2952C149.948 62.2952 148.028 60.71 152.2 61.165C156.375 61.6151 162.68 63.0829 163.052 63.67Z" fill="#FFD888"/>
<path d="M128.999 59.4281C126.904 60.3577 119.866 66.8746 118.564 66.855C117.257 66.8354 110.849 69.9422 110.227 67.8922C109.606 65.8374 106.115 59.0612 106.803 58.4937C107.496 57.9164 108.288 55.3037 115.095 55.4114C121.902 55.5239 121.757 55.519 125.813 55.5826C129.87 55.6462 134.079 57.1727 128.999 59.4281Z" fill="#FFD888"/>
<path d="M111.463 19.1431C113.264 19.8917 115.892 27.0984 117.027 27.9888C118.162 28.8842 122.04 28.3607 118.608 30.3519C115.173 32.3383 114.831 32.6269 113.502 33.4831C112.174 34.3393 111.556 41.3356 109.632 35.4646C107.711 29.5936 108.768 31.6533 107.265 28.1258C105.765 24.5983 99.0921 13.9815 111.463 19.1431Z" fill="#FFD888"/>
<path d="M77.0825 49.8388C77.0825 49.8388 75.1398 53.8947 77.2164 61.2286C79.2931 68.5576 79.7248 72.364 81.3363 75.3093C82.9515 78.2497 84.6969 79.7419 86.5912 81.2293C88.4818 82.7264 90.8004 82.7557 88.359 85.6423C85.9176 88.524 82.2071 88.1717 80.2347 87.8488C78.2622 87.521 73.7032 90.0798 72.1476 86.841C70.5882 83.607 67.8417 79.7664 68.0463 75.6811C68.2473 71.5959 75.4226 39.589 77.0825 49.8388Z" fill="#FFD888"/>
<path d="M233.64 47.6714C235.363 48.283 237.373 51.4289 239.632 51.2674C241.891 51.106 245.828 48.2536 247.455 48.8603C249.081 49.4719 250.134 51.0473 248.876 53.5571C247.619 56.067 248.638 55.3086 245.881 58.5671C243.119 61.8304 243.756 64.5702 241.251 61.9967C238.742 59.4282 237.793 56.2969 234.295 55.8517C230.797 55.4065 226.926 54.3742 226.059 54.3595C225.188 54.3448 220.611 48.4347 225.575 48.3172C230.536 48.2047 233.64 47.6714 233.64 47.6714Z" fill="#FFD888"/>
<path d="M79.8625 23.3116C80.3203 23.7079 81.9503 25.6795 81.8387 28.8939C81.7308 32.1034 81.0348 36.4724 79.8886 36.0126C78.7423 35.5575 74.9834 34.3295 72.6649 34.2953C70.3463 34.2561 67.235 32.3089 63.5953 33.8598C59.9555 35.4059 54.8829 37.2259 55.1211 35.6212C55.3556 34.0213 53.1821 29.4566 56.8591 29.2266C60.5361 28.9918 65.2737 28.9233 67.6444 28.6689C70.0188 28.4096 75.7538 19.74 79.8625 23.3116Z" fill="#FFD888"/>
<path d="M265.616 74.0128C265.616 74.0128 267.983 75.7007 268.821 80.7253C269.658 85.7499 269.662 85.9358 269.837 92.6337C270.008 99.3267 269.453 101.367 269.591 106.577C269.725 111.783 269.695 110.668 269.818 115.501C269.941 120.335 269.721 119.592 269.945 124.239C270.164 128.887 270.644 127.963 269.185 134.093C267.727 140.218 267.473 146.163 265.192 140.013C262.911 133.863 262.405 133.858 262.312 130.14C262.215 126.417 262.434 123.075 262.118 122.698C261.805 122.322 259.364 121.749 259.461 125.472C259.558 129.191 259.371 129.934 259.532 136.07C259.688 142.205 260.246 148.159 259.818 151.134C259.39 154.103 257.868 157.812 257.086 158.923C256.305 160.033 255.992 163.565 255.021 157.235C254.05 150.909 254.027 149.984 253.707 145.517C253.391 141.05 253.264 136.216 253.011 134.171C252.758 132.121 253.16 124.318 251.731 127.654C250.298 130.991 249.539 132.845 249.17 134.147C248.798 135.443 247.909 136.182 247.619 136.74C247.332 137.298 245.668 135.61 245.668 135.61C245.668 135.61 245.471 131.891 245.047 131.148C244.623 130.399 243.871 128.721 243.871 128.721C243.871 128.721 242.52 123.324 242.479 121.832C242.442 120.345 242.178 102.311 242.178 102.311L240.897 91.89C240.897 91.89 240.715 88.7295 243.421 87.8195C246.126 86.9095 249.803 84.5121 250.908 84.1501C252.01 83.788 251.467 82.2958 253.462 81.1901C255.456 80.0893 259.353 78.4405 260.157 78.2644C260.968 78.0687 264.537 71.405 265.616 74.0128Z" fill="#FFD372"/>
<path d="M266.576 79.1059C267.019 80.5149 267.466 87.0611 267.529 89.571C267.559 90.7501 267.499 92.3255 267.444 94.1944C267.425 94.8207 267.403 95.4763 267.388 96.1612C267.362 97.1789 267.336 98.1916 267.31 99.1995C267.269 100.134 267.231 101.068 267.202 102.003C267.239 102.991 267.276 103.989 267.313 104.978C267.775 113.857 267.853 122.781 267.622 131.691C267.566 132.606 267.459 133.579 267.313 134.377C267.165 135.169 266.975 135.791 266.755 136.001C266.457 136.275 266.029 136.588 265.65 136.466C265.114 135.717 264.846 134.744 264.716 133.682C264.66 132.826 264.623 131.979 264.597 131.153C264.563 130.296 264.541 129.455 264.518 128.623L264.373 128.902C265.747 123.334 264.909 114.405 260.693 114.391C260.324 114.42 259.963 114.557 259.613 114.816C259.297 115.076 258.999 115.448 258.731 115.942C258.378 116.48 258.084 117.14 257.875 117.879C257.723 118.466 257.611 119.097 257.518 119.763C257.246 121.749 257.194 123.975 257.016 125.785C256.952 126.7 256.878 127.576 256.774 128.378C256.751 129.347 256.755 130.301 256.792 131.226C256.803 132.014 256.833 132.806 256.874 133.599C256.904 134.386 256.945 135.164 256.993 135.937C257.038 136.706 257.09 137.469 257.142 138.222C257.191 139.054 257.243 139.881 257.298 140.688C257.354 141.495 257.406 142.298 257.455 143.076C257.652 144.749 257.079 146.138 256.949 147.763C256.844 148.521 256.737 149.284 256.632 150.052C256.543 150.801 256.439 151.54 256.327 152.274C256.119 151.608 255.97 150.928 255.858 150.238C255.747 149.539 255.68 148.834 255.65 148.12C255.97 146.358 256.104 144.255 256.055 142.063C256.041 141.334 256.003 140.59 255.948 139.847C255.858 139.064 255.758 138.198 255.642 137.293C255.397 135.683 255.203 133.995 254.958 132.346C254.835 131.524 254.701 130.712 254.541 129.925C254.425 129.416 254.299 128.873 254.154 128.315C254.009 127.762 253.849 127.199 253.67 126.661C253.052 125.203 252.412 123.804 251.478 123.325C251.161 123.217 250.819 123.232 250.447 123.393C249.9 123.574 249.383 124.063 248.951 124.895C247.946 127.121 248.329 130.194 248.244 132.699C246.022 128.785 244.965 123.197 244.604 118.011C244.582 117.204 244.559 116.397 244.53 115.604C244.388 111.646 244.169 108.021 243.975 105.467C243.744 102.394 243.413 101.279 243.361 99.3267C243.313 97.3746 242.665 92.9077 243.424 92.9126C244.183 92.9175 246.245 96.4156 246.513 101.02C246.714 104.474 246.588 106.587 247.179 108.613C247.377 109.288 247.656 109.953 248.054 110.653C248.396 111.328 248.757 111.886 249.133 112.346C249.576 112.913 250.067 113.334 250.559 113.515C251.05 113.691 251.541 113.628 251.984 113.212C252.78 112.38 253.677 111.392 254.623 110.447C255.095 109.973 255.579 109.513 256.067 109.102C256.372 108.818 256.684 108.549 257.004 108.309C257.38 108.016 257.771 107.737 258.177 107.512C258.594 107.209 259.022 106.998 259.45 106.886C259.881 106.778 260.313 106.758 260.745 106.846C261.102 106.9 261.467 107.057 261.824 107.306C262.181 107.556 262.531 107.893 262.859 108.309C264.18 109.953 265.315 112.752 264.779 115.54C265.155 112.473 265.378 109.41 265.479 106.245C265.523 105.472 265.56 104.689 265.594 103.901C265.624 103.113 265.642 102.321 265.65 101.519C265.676 100.609 265.676 99.6838 265.642 98.7445C265.598 97.947 265.523 97.1642 265.412 96.3863C265.356 95.3637 265.3 94.5565 265.274 93.4948C265.196 90.2511 265.088 74.3553 266.576 79.1059Z" fill="#FEE093"/>
<path d="M10.711 57.613C10.711 57.613 272.814 43.5666 275.479 47.8818C275.479 47.8818 277.939 45.8906 275.829 44.7604C273.715 43.6351 10.6216 55.9153 10.711 57.613Z" fill="#D8B462"/>
<path d="M208.378 96.7434L150.942 50.7439C150.942 50.7439 200.529 96.2689 208.378 96.7434Z" fill="#D8B462"/>
<path d="M149.557 51.243C149.557 51.243 94.027 100.501 92.4863 100.506C90.9455 100.511 89.0996 99.5224 89.0996 99.5224L149.557 51.243Z" fill="#D8B462"/>
<path d="M208.657 11.3347L150.942 50.7439L95.7948 9.2749L150.808 48.1949L208.657 11.3347Z" fill="#D8B462"/>
<path d="M270.343 50.4357C272.044 52.5493 271.709 60.3186 269.617 63.2737C267.526 66.2239 262.442 69.9716 259.974 70.3385C257.507 70.7103 247.552 69.1985 245.188 71.2876C242.825 73.3768 237.366 77.9659 235.654 80.0746C233.942 82.1784 228.787 82.9172 228.787 82.9172C228.787 82.9172 228.114 80.7596 231.805 77.418C235.501 74.0715 235.91 71.9384 240.008 69.8884C244.109 67.8384 246.39 66.1798 249.941 65.8276C253.495 65.4802 257.619 65.5732 259.301 64.7512C260.99 63.9342 264.009 42.5783 270.343 50.4357Z" fill="#FEE093"/>
<path d="M98.0129 80.4562C97.0565 84.7812 101.831 88.5583 108.679 88.891C115.527 89.2237 121.854 85.9848 122.81 81.6549C123.767 77.325 118.992 73.5529 112.148 73.2202C105.3 72.8875 98.9694 76.1264 98.0129 80.4562Z" fill="#AA1F23"/>
<path d="M98.292 78.8857C97.3355 83.2107 102.11 86.9926 108.954 87.3253C115.802 87.6531 122.129 84.4192 123.085 80.0844C124.042 75.7594 119.267 71.9775 112.419 71.6497C105.575 71.317 99.2484 74.5607 98.292 78.8857Z" fill="#EC2027"/>
<path d="M101.474 77.1097C101.314 77.9659 102.021 78.4992 103.052 78.2888C104.087 78.0785 105.058 77.2125 105.222 76.3514C105.382 75.4903 104.678 74.9619 103.64 75.1723C102.605 75.3876 101.634 76.2536 101.474 77.1097Z" fill="#FBDBE4"/>
<path d="M110.447 79.1695C110.201 80.0159 110.696 81.1559 111.545 81.7234C112.393 82.2909 113.283 82.0659 113.525 81.2195C113.766 80.3731 113.279 79.2331 112.427 78.6656C111.574 78.1029 110.689 78.328 110.447 79.1695Z" fill="#FBDBE4"/>
<path d="M116.033 76.0627C115.862 76.5765 116.338 77.2565 117.094 77.5941C117.853 77.9268 118.605 77.78 118.776 77.2663C118.947 76.7575 118.471 76.0725 117.711 75.7398C116.956 75.4072 116.204 75.5539 116.033 76.0627Z" fill="#FBDBE4"/>
<path d="M133.621 17.6607C132.706 21.9857 135.605 25.7334 140.097 26.0269C144.585 26.3254 148.969 23.0523 149.881 18.7224C150.797 14.3925 147.898 10.6448 143.409 10.3561C138.917 10.0577 134.537 13.3308 133.621 17.6607Z" fill="#AA1F23"/>
<path d="M133.904 16.0902C132.989 20.42 135.888 24.1677 140.38 24.4613C144.868 24.7597 149.252 21.4866 150.164 17.1567C151.08 12.8269 148.18 9.07918 143.692 8.78563C139.2 8.49208 134.82 11.7652 133.904 16.0902Z" fill="#EC2027"/>
<path d="M136.04 14.549C135.959 15.1606 136.413 15.6107 137.056 15.5569C137.697 15.508 138.285 14.9747 138.37 14.368C138.452 13.7613 137.998 13.3112 137.358 13.3601C136.71 13.414 136.122 13.9424 136.04 14.549Z" fill="#FBDBE4"/>
<path d="M141.891 17.8026C141.761 18.2135 142.062 18.7615 142.568 19.0208C143.071 19.285 143.584 19.1676 143.718 18.7517C143.848 18.3408 143.547 17.7879 143.045 17.5286C142.538 17.2693 142.025 17.3867 141.891 17.8026Z" fill="#FBDBE4"/>
<path d="M146.119 15.3368C145.973 15.8162 146.275 16.4522 146.788 16.7654C147.302 17.0736 147.838 16.9366 147.983 16.4571C148.128 15.9777 147.827 15.3416 147.313 15.0285C146.796 14.7203 146.264 14.8573 146.119 15.3368Z" fill="#FBDBE4"/>
<path d="M190.186 60.6464C189.77 62.8138 186.707 64.5359 183.346 64.4772C179.985 64.4234 177.6 62.623 178.017 60.4507C178.434 58.2784 181.496 56.5661 184.857 56.615C188.218 56.6737 190.603 58.479 190.186 60.6464Z" fill="#C0A056"/>
<path d="M190.454 57.9751C188.556 62.804 184.771 64.5409 181.999 61.85C179.226 59.1591 178.512 53.063 180.41 48.2292C182.308 43.4003 186.093 41.6634 188.869 44.3543C191.642 47.0452 192.352 53.1413 190.454 57.9751Z" fill="url(#paint2_radial)"/>
<path d="M92.0024 27.25C91.6638 29.0211 88.6604 30.4106 85.3035 30.3568C81.9429 30.3029 79.4941 28.8254 79.8365 27.0543C80.1788 25.2832 83.1785 23.8889 86.5354 23.9427C89.8923 23.9965 92.3411 25.4789 92.0024 27.25Z" fill="#C0A056"/>
<path d="M83.3199 26.4868C82.877 22.7342 85.3593 16.1048 88.8614 11.6869C92.3634 7.26894 95.5603 6.73566 96.0032 10.4882C96.4423 14.2457 93.9637 20.8702 90.4617 25.2881C86.9596 29.7061 83.7628 30.2442 83.3199 26.4868Z" fill="url(#paint3_radial)"/>
<path d="M187.715 47.9796C187.406 49.5893 186.119 50.876 184.838 50.8565C183.558 50.8369 182.769 49.5159 183.082 47.9111C183.391 46.3015 184.678 45.0148 185.959 45.0392C187.239 45.049 188.028 46.37 187.715 47.9796Z" fill="#3B458C"/>
<path d="M89.1331 13.7124C89.1517 14.8377 90.2645 14.9649 91.6191 14.0011C92.9738 13.0372 94.0605 11.3444 94.0419 10.2192C94.0233 9.09391 92.9068 8.9667 91.5522 9.93052C90.1975 10.8943 89.1108 12.592 89.1331 13.7124Z" fill="#3B458C"/>
<path d="M122.211 80.7303C122.211 80.7303 119.159 86.9584 107.455 86.2636C107.455 86.2636 117.737 86.4251 122.211 80.7303Z" fill="#C62127"/>
<path d="M146.789 10.1653C147.101 10.2289 142.125 8.44812 139.111 10.5176C139.111 10.5176 137.879 11.4471 139.557 10.7426C141.24 10.043 143.138 9.41681 146.789 10.1653Z" fill="#C62127"/>
<path d="M146.23 22.519C146.23 22.519 142.773 24.9946 138.366 23.7568C138.366 23.7568 142.739 24.1677 146.23 22.519Z" fill="#C62127"/>
<path d="M92.0285 70.04C91.6527 71.9922 89.2448 73.5382 86.6508 73.4991C84.0568 73.4599 82.2593 71.8405 82.6314 69.8933C83.0073 67.9411 85.4152 66.3902 88.0092 66.4342C90.6032 66.4734 92.4007 68.0879 92.0285 70.04Z" fill="#C0A056"/>
<path d="M92.3002 67.6378C90.7148 71.9824 87.7486 73.5529 85.672 71.136C83.5953 68.724 83.1933 63.2443 84.775 58.8949C86.3605 54.5503 89.3266 52.9798 91.4033 55.3918C93.4837 57.8087 93.8819 63.2884 92.3002 67.6378Z" fill="url(#paint4_radial)"/>
<path d="M90.4282 58.6551C90.1491 60.0984 89.1219 61.2628 88.1319 61.2482C87.1457 61.2335 86.5689 60.0446 86.848 58.5964C87.1271 57.1531 88.1543 55.9936 89.1405 56.0083C90.1304 56.0278 90.7073 57.2069 90.4282 58.6551Z" fill="#3B458C"/>
<path d="M152.773 47.4708C152.114 50.4699 155.322 53.0874 159.941 53.3125C164.559 53.5424 168.843 51.2968 169.502 48.2928C170.164 45.2936 166.952 42.6761 162.334 42.4511C157.715 42.226 153.435 44.4717 152.773 47.4708Z" fill="#AA1F23"/>
<path d="M152.963 46.3896C152.304 49.3887 155.512 52.0013 160.131 52.2312C164.749 52.4612 169.029 50.2155 169.691 47.2164C170.354 44.2173 167.142 41.5998 162.524 41.3699C157.905 41.1399 153.625 43.3856 152.963 46.3896Z" fill="#EC2027"/>
<path d="M155.117 45.1567C155.006 45.7535 155.478 46.1205 156.182 45.9737C156.882 45.8269 157.537 45.2252 157.652 44.6332C157.764 44.0412 157.291 43.6742 156.591 43.8161C155.888 43.958 155.233 44.5598 155.117 45.1567Z" fill="#FBDBE4"/>
<path d="M161.165 46.5804C160.998 47.1675 161.325 47.9601 161.898 48.3564C162.471 48.7478 163.067 48.5912 163.238 48.0041C163.406 47.417 163.078 46.6293 162.505 46.233C161.932 45.8416 161.333 45.9982 161.165 46.5804Z" fill="#FBDBE4"/>
<path d="M164.76 43.6253C164.593 44.2124 164.924 45.0001 165.493 45.3964C166.067 45.7878 166.666 45.6361 166.833 45.049C167.001 44.4668 166.669 43.6693 166.1 43.2779C165.527 42.8817 164.928 43.0382 164.76 43.6253Z" fill="#FBDBE4"/>
<path d="M169.103 47.6567C169.103 47.6567 167.023 51.9769 159.122 51.4974C159.122 51.4974 166.063 51.605 169.103 47.6567Z" fill="#C62127"/>
<path d="M50.1602 39.726C49.293 42.6664 52.0768 46.326 56.3753 47.9063C60.6738 49.4817 64.8643 48.3808 65.7277 45.4404C66.5949 42.5 63.8111 38.8355 59.5089 37.2552C55.2141 35.6799 51.0273 36.7856 50.1602 39.726Z" fill="#AA1F23"/>
<path d="M50.4281 38.6496C49.561 41.59 52.3485 45.2545 56.647 46.8299C60.9492 48.4053 65.136 47.3045 65.9994 44.3641C66.8629 41.4237 64.0828 37.7641 59.7843 36.1789C55.4821 34.6035 51.2953 35.7092 50.4281 38.6496Z" fill="#EC2027"/>
<path d="M52.4862 38.131C52.4006 38.5469 52.8249 39.0459 53.4315 39.2416C54.0381 39.4373 54.6001 39.2612 54.682 38.8453C54.7675 38.4295 54.3433 37.9353 53.7367 37.7396C53.13 37.5439 52.5718 37.72 52.4862 38.131Z" fill="#FBDBE4"/>
<path d="M58.0947 41.9717C57.9458 42.3435 58.2175 42.9795 58.7013 43.4002C59.1851 43.821 59.7024 43.865 59.8513 43.4981C60.0001 43.1312 59.7285 42.4951 59.2447 42.0744C58.7609 41.6488 58.2473 41.6047 58.0947 41.9717Z" fill="#FBDBE4"/>
<path d="M61.6786 40.044C61.5335 40.3816 61.8163 40.9735 62.3076 41.3698C62.7988 41.7661 63.3124 41.8151 63.4539 41.4824C63.5953 41.1448 63.3124 40.5479 62.8249 40.1565C62.3336 39.7602 61.8201 39.7064 61.6786 40.044Z" fill="#FBDBE4"/>
<path d="M65.4077 44.6528C65.4077 44.6528 63.1078 48.557 55.7613 45.7683C55.765 45.7683 62.2406 47.8965 65.4077 44.6528Z" fill="#C62127"/>
<path d="M205.3 47.0207C205.791 46.7516 211.701 51.5023 219.234 51.6197C226.766 51.742 229.133 59.0808 225.81 60.485C222.49 61.894 217.339 62.9802 214.98 60.8959C212.62 58.8166 196.874 51.5561 205.3 47.0207Z" fill="#74C044"/>
<path d="M134.563 37.4069C133.815 40.7827 127.194 42.6957 119.777 41.6781C112.36 40.6604 106.952 37.0987 107.7 33.7277C108.448 30.3519 115.069 28.4438 122.486 29.4615C129.9 30.4742 135.311 34.0311 134.563 37.4069Z" fill="#AA1F23"/>
<path d="M134.905 36.2034C134.157 39.5792 127.537 41.4873 120.119 40.4696C112.702 39.452 107.295 35.8853 108.043 32.5144C108.791 29.1386 115.412 27.2305 122.829 28.2481C130.246 29.2658 135.653 32.8275 134.905 36.2034Z" fill="#EC2027"/>
<path d="M132.244 34.3002C132.066 34.9655 131.102 35.22 130.082 34.8775C129.066 34.5301 128.389 33.7131 128.564 33.0477C128.742 32.3823 129.71 32.123 130.726 32.4655C131.742 32.8177 132.423 33.6348 132.244 34.3002Z" fill="#FBDBE4"/>
<path d="M121.861 34.168C121.776 34.8383 120.786 35.5918 119.65 35.856C118.515 36.1202 117.663 35.7875 117.749 35.1221C117.834 34.4518 118.824 33.6984 119.963 33.4342C121.094 33.17 121.95 33.4978 121.861 34.168Z" fill="#FBDBE4"/>
<path d="M117.957 30.0388C117.872 30.7042 116.882 31.4625 115.743 31.7267C114.608 31.986 113.755 31.6582 113.841 30.9928C113.93 30.3225 114.917 29.5691 116.052 29.3049C117.194 29.0407 118.043 29.3734 117.957 30.0388Z" fill="#FBDBE4"/>
<path d="M205.527 78.4258C204.965 81.8017 209.997 83.9006 216.774 83.1129C223.547 82.3203 229.494 78.9444 230.056 75.5637C230.622 72.1879 225.587 70.089 218.813 70.8816C212.04 71.6693 206.093 75.0451 205.527 78.4258Z" fill="#AA1F23"/>
<path d="M205.666 77.2125C205.104 80.5883 210.136 82.6872 216.909 81.8995C223.682 81.1118 229.63 77.7311 230.195 74.3504C230.761 70.9696 225.726 68.8756 218.952 69.6633C212.175 70.4559 206.228 73.8366 205.666 77.2125Z" fill="#EC2027"/>
<path d="M208.646 75.4072C208.56 76.0725 209.304 76.3612 210.302 76.0481C211.303 75.735 212.185 74.9375 212.267 74.2672C212.352 73.6067 211.608 73.318 210.607 73.6312C209.61 73.9443 208.728 74.7418 208.646 75.4072Z" fill="#FBDBE4"/>
<path d="M217.659 75.5833C217.492 76.2536 218.076 77.0315 218.966 77.325C219.852 77.6186 220.707 77.3152 220.871 76.6499C221.039 75.9845 220.451 75.2066 219.565 74.913C218.679 74.6146 217.827 74.9179 217.659 75.5833Z" fill="#FBDBE4"/>
<path d="M222.512 71.5958C222.345 72.2661 222.933 73.0392 223.819 73.3376C224.704 73.6312 225.56 73.3229 225.724 72.6624C225.892 71.997 225.304 71.2142 224.418 70.9207C223.532 70.6222 222.676 70.9256 222.512 71.5958Z" fill="#FBDBE4"/>
<path d="M139.211 82.9074C138.649 86.2832 143.681 88.3821 150.454 87.5895C157.228 86.8018 163.175 83.4211 163.741 80.0404C164.303 76.6645 159.271 74.5657 152.498 75.3582C145.72 76.1508 139.773 79.5267 139.211 82.9074Z" fill="#AA1F23"/>
<path d="M139.346 81.6989C138.785 85.0747 143.816 87.1736 150.59 86.381C157.363 85.5934 163.31 82.2126 163.876 78.8368C164.441 75.4561 159.406 73.3621 152.629 74.1547C145.859 74.9424 139.908 78.3182 139.346 81.6989Z" fill="#EC2027"/>
<path d="M142.326 79.8887C142.241 80.5541 142.985 80.8427 143.986 80.5296C144.987 80.2165 145.869 79.4239 145.951 78.7536C146.033 78.0882 145.289 77.8093 144.291 78.1176C143.29 78.4258 142.408 79.2184 142.326 79.8887Z" fill="#FBDBE4"/>
<path d="M151.34 80.0697C151.176 80.7351 151.761 81.513 152.646 81.8114C153.532 82.105 154.388 81.8017 154.552 81.1363C154.716 80.4709 154.131 79.6881 153.246 79.3945C152.36 79.0961 151.508 79.3994 151.34 80.0697Z" fill="#FBDBE4"/>
<path d="M156.193 76.0774C156.026 76.7477 156.614 77.5256 157.499 77.8192C158.385 78.1127 159.241 77.8143 159.405 77.144C159.572 76.4786 158.984 75.7007 158.099 75.4022C157.213 75.1087 156.361 75.4071 156.193 76.0774Z" fill="#FBDBE4"/>
<path d="M160.707 15.9483C160.332 17.9004 162.412 19.5199 165.356 19.5688C168.3 19.6177 170.99 18.0766 171.366 16.1245C171.742 14.1723 169.658 12.5529 166.718 12.504C163.774 12.4551 161.083 14.0011 160.707 15.9483Z" fill="#C0A056"/>
<path d="M161.381 13.5559C161.389 17.9249 164.098 19.5835 167.429 17.2596C170.76 14.9356 173.454 9.5049 173.447 5.13098C173.439 0.757063 170.733 -0.901504 167.403 1.42245C164.072 3.75129 161.374 9.182 161.381 13.5559Z" fill="url(#paint5_radial)"/>
<path d="M167.168 4.6955C166.889 6.1437 167.574 7.32769 168.694 7.34726C169.814 7.36683 170.953 6.2073 171.228 4.764C171.508 3.3207 170.823 2.12692 169.703 2.11224C168.579 2.09267 167.444 3.25221 167.168 4.6955Z" fill="#3B458C"/>
<path d="M242.036 58.0044C241.805 59.2178 243.283 60.2305 245.345 60.2648C247.406 60.299 249.264 59.3401 249.498 58.1219C249.732 56.9085 248.251 55.8958 246.193 55.8615C244.128 55.8273 242.271 56.7862 242.036 58.0044Z" fill="#C0A056"/>
<path d="M242.472 56.5122C242.542 59.2374 244.459 60.2746 246.755 58.8313C249.051 57.3831 250.856 54.0024 250.786 51.2772C250.719 48.5521 248.798 47.51 246.502 48.9582C244.21 50.4015 242.401 53.7871 242.472 56.5122Z" fill="url(#paint6_radial)"/>
<path d="M246.39 50.9993C246.216 51.8995 246.714 52.6432 247.496 52.6529C248.281 52.6676 249.059 51.9435 249.23 51.0433C249.405 50.1431 248.906 49.4043 248.121 49.3896C247.339 49.3749 246.562 50.099 246.39 50.9993Z" fill="#3B458C"/>
<path d="M181.593 25.2197C191.336 18.3652 197.957 16.4278 194.786 14.0402C191.616 11.6527 189.907 12.2104 187.388 12.4599C184.868 12.7144 183.041 12.3914 181.604 13.8299C180.164 15.2634 177.89 17.2693 176.018 18.7028C174.146 20.1314 168.326 24.7108 172.326 25.0631C176.327 25.4203 181.496 23.4584 181.496 23.4584L181.593 25.2197Z" fill="#C0A056"/>
<path d="M134.641 48.3124C136.96 48.5178 135.854 57.8234 138.902 60.1327C141.947 62.4469 142.233 59.8196 144.604 63.3618C146.975 66.904 149.278 67.3785 147.522 70.8522C145.765 74.3308 141.958 70.3287 140.253 68.9833C138.549 67.6476 128.642 47.7791 134.641 48.3124Z" fill="#C0A056"/>
<path d="M105.828 47.4121C105.828 47.4121 97.7747 45.0931 95.1844 47.2409C92.5905 49.3838 86.3679 54.5454 83.9302 53.6305C81.4926 52.7156 76.9485 49.1392 77.2834 47.3926C77.6184 45.6459 78.88 39.0997 79.9667 39.1144C81.0534 39.1291 83.4911 40.044 85.2291 40.0733C86.9671 40.1027 88.0538 40.1174 90.6627 40.1614C93.2678 40.2054 112.669 43.5813 105.828 47.4121Z" fill="#C0A056"/>
<path d="M119.87 8.46766C121.307 8.49212 120.38 11.0998 122.349 15.2193C124.317 19.3388 126.476 21.7117 126.398 22.8761C126.32 24.0405 124.846 28.6933 123.376 25.748C121.909 22.8027 120.328 20.4445 119.863 19.8574C119.394 19.2654 116.398 17.4601 116.245 16.0021C116.089 14.5393 111.902 8.34045 119.87 8.46766Z" fill="#C0A056"/>
<path d="M35.6831 50.3378C35.6831 50.3378 33.197 54.9662 41.1687 56.5562C49.1442 58.1414 49.4568 57.2706 53.0556 58.205C56.6544 59.1395 60.4989 58.0338 57.3318 60.9008C54.1647 63.7678 49.3861 63.6944 46.3418 63.6455C43.3012 63.5966 36.9261 63.4938 35.1881 63.4645C33.4501 63.4351 27.261 65.3824 28.4147 60.1474C29.5759 54.9124 34.3879 42.7251 35.6831 50.3378Z" fill="#C0A056"/>
<path d="M170.529 61.1504C170.529 61.1504 167.883 68.1173 174.716 69.9765C181.549 71.8356 186.264 68.8463 189.669 71.5274C193.074 74.2134 193.938 79.9181 193.521 82.1001C193.1 84.2871 193.584 85.1677 191.924 90.3978C190.265 95.628 190.376 99.5713 185.765 98.6222C181.154 97.673 178.132 94.1162 178.385 92.8099C178.638 91.4987 180.149 83.6413 180.149 83.6413C180.149 83.6413 179.182 81.8751 178.612 81.425C178.046 80.9797 173.781 80.4709 172.914 80.4562C172.043 80.4465 164.548 57.114 170.529 61.1504Z" fill="#C0A056"/>
<path d="M229.807 32.8128C232.148 31.1738 238.117 32.6612 240.127 32.4068C242.137 32.1523 244.697 29.0456 246.435 29.0749C248.173 29.1043 250.886 30.8607 249.74 33.4195C248.594 35.9734 247.291 37.0987 244.571 38.7719C241.85 40.4452 240.06 40.7045 238.158 40.3865C236.256 40.0635 231.701 36.5654 231.701 36.5654C231.701 36.5654 225.017 36.1691 229.807 32.8128Z" fill="#C0A056"/>
<path d="M237.522 33.3755C237.656 33.4489 237.392 34.5595 240.086 33.4929C242.78 32.4263 242.955 32.4606 243.547 32.1181C244.135 31.7805 244.693 30.9733 245.456 31.1298C246.227 31.2766 246.413 30.4791 246.956 31.4185C247.5 32.3578 248.091 32.0203 247.682 33.4587C247.269 34.8922 247.626 36.0223 245.959 37.0596C244.291 38.0968 244.191 38.2289 242.2 37.8424C240.213 37.4558 238.571 37.1378 237.857 37.0742C237.142 37.0106 236.777 37.4705 235.869 36.6828C234.958 35.9098 236.491 32.7933 237.522 33.3755Z" fill="#C0A056"/>
<path d="M189.1 73.46C189.252 73.6214 190.413 75.3289 190.722 76.9092C191.035 78.4846 191.314 78.7439 191.418 80.9847C191.522 83.2254 191.362 83.0884 190.797 86.5181C190.235 89.9477 190.265 91.2638 189.386 92.301C188.508 93.3431 188.236 94.7082 186.562 93.9792C184.883 93.2502 183.607 93.2991 183.357 90.2217C183.108 87.1443 183.7 84.6296 183.781 82.8242C183.867 81.0238 183.484 79.331 183.086 78.5531C182.687 77.7654 181.537 76.0285 181.143 75.8524C180.748 75.6714 178.813 74.5901 178.091 74.3504C177.369 74.1107 175.88 73.8171 175.185 73.685C174.485 73.548 172.963 71.3317 172.963 71.3317C172.963 71.3317 171.917 70.8229 173.428 71.0186C174.939 71.2094 175.214 71.2632 176.822 71.4785C178.426 71.684 178.567 72.1194 180.894 72.1683C183.216 72.2173 183.934 71.8503 185.051 72.0705C186.163 72.2858 188.396 72.7212 189.1 73.46Z" fill="#C0A056"/>
<path d="M140.134 62.0163C140.134 62.0163 141.619 62.3833 142.367 62.7551C143.119 63.1318 143.536 63.0584 143.837 63.7972C144.135 64.5409 144.228 64.7806 144.961 65.8374C145.698 66.8893 145.784 66.6838 146.364 67.0214C146.941 67.3589 147.06 66.855 147.15 67.858C147.243 68.8561 147.488 69.2083 146.811 69.7612C146.137 70.314 144.984 70.3923 144.771 69.4432C144.559 68.4891 143.227 67.6231 142.107 66.1945C140.983 64.7659 141.228 64.9616 140.789 64.4968C140.354 64.032 138.37 61.2971 138.154 60.4996C137.942 59.6973 140.134 62.0163 140.134 62.0163Z" fill="#C0A056"/>
<path d="M97.8491 44.7016C97.8491 44.7016 96.1744 43.7672 95.7352 44.3885C95.2961 45.0099 94.5778 45.3768 92.8435 46.7565C91.1055 48.1362 91.34 48.3857 89.4829 48.6303C87.6258 48.8798 86.0441 48.5667 84.9983 48.2634C83.9526 47.9601 80.7408 47.5344 80.4133 46.8641C80.0821 46.1987 79.0475 43.366 79.2298 42.3924C79.4085 41.4188 79.4978 40.4256 80.3351 40.587C81.1725 40.7485 81.3586 40.7827 83.4501 41.1937C85.5417 41.5998 88.4743 42.1673 89.4755 42.2652C90.4766 42.3581 99.2819 42.3532 100.983 43.3904C102.684 44.4277 103.365 46.0764 103.018 46.1107C102.665 46.1449 98.1022 44.6478 97.8491 44.7016Z" fill="#C0A056"/>
<path d="M120.279 10.2248C120.279 10.2248 120.131 11.4088 120.73 12.6613C121.329 13.9138 121.567 14.7553 122.587 16.3943C123.61 18.0333 124.217 19.3249 124.422 19.9316C124.626 20.5382 124.749 20.9443 124.44 21.414C124.128 21.8837 123.781 23.9777 123.1 21.5314C122.416 19.0852 122.144 18.9188 122.006 18.7427C121.865 18.5617 121.113 17.9648 121.254 18.5959C121.4 19.227 120.514 18.7916 120.514 18.7916C120.514 18.7916 119.989 18.6155 119.665 18.0577C119.342 17.5 118.832 16.8737 118.56 16.7808C118.292 16.6927 117.976 16.7025 117.678 15.9637C117.377 15.2201 117.016 14.3541 116.803 13.6349C116.591 12.9108 116.387 11.9225 116.521 11.5702C116.658 11.218 117.112 9.98017 117.551 10.1416C117.987 10.3031 118.076 10.6994 118.493 12.035C118.91 13.3658 118.884 14.5694 119.304 13.7034C119.725 12.8374 119.777 12.3922 119.572 11.7855C119.368 11.1788 119.129 10.6407 119.286 10.215C119.431 9.79915 120.305 8.49284 120.279 10.2248Z" fill="#C0A056"/>
<path d="M44.6484 57.8919C44.6484 57.8919 45.7426 58.205 46.766 58.4056C47.7895 58.6062 47.8118 58.3078 50.1378 58.7579C52.4639 59.2129 55.3891 59.1738 55.5342 59.6043C55.6756 60.0397 54.5033 62.7404 53.2268 62.5936C51.9503 62.4469 51.6674 62.393 50.0895 62.2854C48.5115 62.1778 46.8591 61.757 46.4869 61.6836C46.1073 61.6102 43.3124 60.255 44.6484 57.8919Z" fill="#C0A056"/>
<path d="M34.7191 52.0209C34.6112 52.652 34.5479 52.6423 34.7378 53.2881C34.9276 53.9339 35.2737 53.3908 35.0429 54.1589C34.8159 54.9222 33.6324 57.8772 33.5692 58.3665C33.5022 58.8557 33.2752 59.7217 33.2417 60.2746C33.2082 60.8274 33.2379 61.4341 32.8211 61.6591C32.4043 61.8793 31.6823 61.7374 31.3101 61.5662C30.9343 61.3949 30.1453 61.3411 30.1899 60.6415C30.2346 59.9419 30.4207 57.9115 30.5435 57.3782C30.6663 56.8449 29.5461 57.9947 31.4664 54.0709C33.3831 50.1422 35.2141 49.0854 34.7191 52.0209Z" fill="#C0A056"/>
<path d="M184.522 14.5784C184.522 14.5784 185.099 14.7692 187.168 14.3387C189.241 13.9081 189.799 13.8641 191.333 14.1625C192.87 14.461 193.127 14.1332 193.216 14.5295C193.305 14.9258 188.575 17.1861 187.678 18.375C186.777 19.5639 186.863 19.3535 185.947 20.3075C185.028 21.2665 185.252 20.6304 184.247 21.6481C183.242 22.6657 182.382 21.5111 181.843 21.6383C181.303 21.7606 180.64 21.6285 178.899 22.3526C177.161 23.0718 176.115 23.1746 175.836 22.9691C175.557 22.7636 174.582 23.0278 175.706 21.5062C176.829 19.9797 177.503 19.1284 178.028 18.7713C178.545 18.4239 179.062 17.0051 179.829 17.1568C180.596 17.3035 180.733 17.0296 181.087 17.7047C181.441 18.3799 181.281 21.0757 181.735 18.3603C182.192 15.645 181.995 14.9258 182.166 14.8083C182.341 14.6909 182.706 14.3827 183.16 14.4708C183.614 14.5539 184.522 14.5784 184.522 14.5784Z" fill="#C0A056"/>
<path d="M181.913 23.5758C191.656 16.7213 198.277 14.7839 195.106 12.4012C191.936 10.0137 190.227 10.5666 187.708 10.821C185.188 11.0705 183.361 10.7476 181.924 12.186C180.488 13.6195 178.21 15.6303 176.338 17.0589C174.466 18.4924 168.646 23.0718 172.643 23.429C176.643 23.7862 181.813 21.8194 181.813 21.8194L181.913 23.5758Z" fill="#74C044"/>
<path d="M134.961 46.6685C137.276 46.874 136.178 56.1746 139.222 58.4888C142.267 60.803 142.553 58.1806 144.924 61.7179C147.295 65.26 149.598 65.7346 147.842 69.2132C146.085 72.6869 142.278 68.6848 140.573 67.3443C138.869 66.0037 128.962 46.1352 134.961 46.6685Z" fill="#74C044"/>
<path d="M106.152 45.7682C106.152 45.7682 98.0985 43.4492 95.5045 45.6019C92.9105 47.7497 86.688 52.9064 84.2503 51.9915C81.8126 51.0766 77.2685 47.5002 77.6035 45.7535C77.9421 44.0069 79.2001 37.4558 80.2868 37.4754C81.3735 37.4901 83.8111 38.4099 85.5491 38.4343C87.2871 38.4637 88.3739 38.4784 90.979 38.5224C93.5879 38.5615 112.989 41.9374 106.152 45.7682Z" fill="#74C044"/>
<path d="M120.19 6.81886C121.627 6.84333 120.7 9.45593 122.669 13.5754C124.637 17.6998 126.8 20.0678 126.718 21.2322C126.64 22.3967 125.162 27.0446 123.696 24.1041C122.23 21.1588 120.648 18.8007 120.179 18.2087C119.71 17.6167 116.718 15.8162 116.561 14.3533C116.409 12.8954 112.222 6.69655 120.19 6.81886Z" fill="#74C044"/>
<path d="M36.0031 48.694C36.0031 48.694 33.5171 53.3223 41.4888 54.9124C49.4642 56.4975 49.7769 55.6267 53.3757 56.5611C56.9745 57.4907 60.8189 56.385 57.6518 59.2569C54.4847 62.1239 49.7024 62.0505 46.6619 61.9967C43.6213 61.9478 37.2461 61.8451 35.5081 61.8206C33.7701 61.7912 27.5848 63.7385 28.7385 58.5035C29.8959 53.2636 34.708 41.0812 36.0031 48.694Z" fill="#74C044"/>
<path d="M170.849 59.5065C170.849 59.5065 168.203 66.4685 175.036 68.3326C181.869 70.1917 186.584 67.2073 189.989 69.8884C193.398 72.5695 194.258 78.2791 193.841 80.4611C193.421 82.6432 193.904 83.5287 192.245 88.7588C190.585 93.9841 190.696 97.9274 186.085 96.9783C181.474 96.0291 178.452 92.4772 178.705 91.166C178.958 89.8548 180.469 81.9974 180.469 81.9974C180.469 81.9974 179.502 80.2263 178.932 79.7811C178.367 79.331 174.102 78.827 173.234 78.8172C172.367 78.7977 164.868 55.4701 170.849 59.5065Z" fill="#74C044"/>
<path d="M230.127 31.1689C232.468 29.5251 238.437 31.0173 240.447 30.7629C242.457 30.5085 245.017 27.4017 246.751 27.4311C248.489 27.4604 251.202 29.2168 250.056 31.7756C248.914 34.3295 247.607 35.4499 244.887 37.1232C242.166 38.7964 240.376 39.0508 238.475 38.7377C236.573 38.4197 232.018 34.9166 232.018 34.9166C232.018 34.9166 225.341 34.5252 230.127 31.1689Z" fill="#74C044"/>
<path d="M237.842 31.7316C237.972 31.805 237.708 32.9205 240.402 31.849C243.097 30.7824 243.272 30.8167 243.863 30.4742C244.451 30.1366 245.006 29.3343 245.773 29.481C246.539 29.6327 246.729 28.8352 247.272 29.7746C247.819 30.714 248.408 30.3764 247.998 31.8099C247.589 33.2434 247.942 34.3784 246.275 35.4156C244.608 36.4528 244.504 36.5849 242.516 36.1984C240.525 35.8119 238.888 35.4939 238.173 35.4303C237.459 35.3716 237.094 35.8266 236.186 35.0438C235.278 34.261 236.811 31.1494 237.842 31.7316Z" fill="#A4CD39"/>
<path d="M206.837 49.0364C206.837 49.0364 206.517 50.3917 209.263 50.9201C212.006 51.4582 213.287 51.3995 216.074 51.9426C218.865 52.4857 221.653 52.8282 222.237 53.0434C222.818 53.2587 223.99 55.3038 223.99 55.3038C223.99 55.3038 221.597 55.1423 220.946 55.0151C220.294 54.8879 219.617 54.4525 218.504 54.4378C217.388 54.4231 215.244 53.2 215.244 53.2C215.244 53.2 213.86 54.9466 215.534 55.475C217.209 56.0034 218.672 55.9838 219.628 56.478C220.585 56.9672 222.81 56.385 222.282 57.3929C221.753 58.4007 219.919 58.9585 218.78 58.4301C217.641 57.9066 216.29 57.2412 216.923 58.2735C217.555 59.3059 217.745 60.3529 217.142 60.2354C216.539 60.118 214.44 58.9047 213.692 57.9457C212.944 56.9917 211.586 55.113 210.585 54.8145C209.584 54.521 207.373 53.7871 207.068 53.019C206.763 52.2557 202.323 47.554 206.837 49.0364Z" fill="#A4CD39"/>
<path d="M189.42 71.816C189.572 71.9775 190.73 73.6899 191.039 75.2653C191.351 76.8407 191.63 77.1 191.735 79.3407C191.839 81.5864 191.675 81.4494 191.113 84.8791C190.551 88.3087 190.581 89.6248 189.706 90.6669C188.828 91.7091 188.556 93.0741 186.882 92.3402C185.203 91.6112 183.927 91.665 183.677 88.5876C183.428 85.5053 184.02 82.9955 184.102 81.1901C184.183 79.3897 183.804 77.7017 183.402 76.914C183.004 76.1263 181.854 74.3895 181.459 74.2134C181.061 74.0323 179.129 72.9511 178.407 72.7114C177.685 72.4667 176.197 72.183 175.501 72.046C174.801 71.909 173.283 69.6976 173.283 69.6976C173.283 69.6976 172.233 69.1887 173.744 69.3844C175.255 69.5801 175.534 69.634 177.138 69.8443C178.742 70.0547 178.884 70.4901 181.206 70.5342C183.532 70.5782 184.247 70.2162 185.367 70.4314C186.487 70.6369 188.716 71.0772 189.42 71.816Z" fill="#A4CD39"/>
<path d="M140.454 60.3724C140.454 60.3724 141.936 60.7345 142.687 61.1112C143.439 61.4879 143.856 61.4145 144.157 62.1582C144.459 62.897 144.544 63.1416 145.281 64.1984C146.018 65.2503 146.104 65.0399 146.681 65.3775C147.257 65.7151 147.377 65.2063 147.47 66.2092C147.563 67.2122 147.808 67.5645 147.131 68.1173C146.454 68.6653 145.307 68.7435 145.091 67.7944C144.879 66.8404 143.547 65.9744 142.427 64.5458C141.303 63.1171 141.549 63.3128 141.109 62.8529C140.674 62.3882 138.69 59.6532 138.474 58.8509C138.262 58.0534 140.454 60.3724 140.454 60.3724Z" fill="#A4CD39"/>
<path d="M98.1692 43.0578C98.1692 43.0578 96.4945 42.1233 96.0553 42.7446C95.6162 43.366 94.8979 43.7329 93.1636 45.1126C91.4293 46.4923 91.6601 46.737 89.803 46.9816C87.9459 47.2262 86.3642 46.918 85.3184 46.6146C84.2726 46.3064 81.0609 45.8857 80.7334 45.2154C80.4021 44.55 79.3675 41.7172 79.5499 40.7436C79.7285 39.77 79.8178 38.7768 80.6552 38.9382C81.4926 39.0997 81.6787 39.1388 83.7702 39.5449C85.8618 39.9559 88.7944 40.5283 89.7918 40.6164C90.7929 40.7093 99.5983 40.6995 101.299 41.7417C103 42.7789 103.685 44.4277 103.335 44.4619C102.989 44.4962 98.4223 43.0039 98.1692 43.0578Z" fill="#A4CD39"/>
<path d="M120.599 8.58093C120.599 8.58093 120.447 9.76492 121.046 11.0174C121.645 12.2748 121.887 13.1163 122.907 14.7504C123.927 16.3894 124.533 17.681 124.738 18.2926C124.943 18.8993 125.065 19.3005 124.756 19.775C124.444 20.2447 124.098 22.3338 123.413 19.8925C122.728 17.4511 122.46 17.2799 122.319 17.1037C122.177 16.9276 121.426 16.3258 121.571 16.9569C121.716 17.593 120.83 17.1527 120.83 17.1527C120.83 17.1527 120.305 16.9765 119.982 16.4188C119.658 15.8659 119.148 15.2348 118.876 15.1467C118.605 15.0538 118.296 15.0684 117.994 14.3297C117.693 13.5909 117.332 12.7249 117.12 12.0008C116.908 11.2767 116.703 10.2884 116.837 9.94106C116.975 9.58879 117.432 8.35098 117.868 8.51244C118.303 8.67389 118.396 9.07018 118.813 10.401C119.23 11.7317 119.2 12.9353 119.621 12.0742C120.041 11.2082 120.093 10.763 119.889 10.1563C119.684 9.54965 119.446 9.01147 119.602 8.58582C119.751 8.15528 120.625 6.84408 120.599 8.58093Z" fill="#A4CD39"/>
<path d="M44.9685 56.248C44.9685 56.248 46.0627 56.5611 47.0861 56.7568C48.1096 56.9574 48.1319 56.659 50.4579 57.1091C52.784 57.5592 55.7092 57.525 55.8506 57.9555C55.992 58.3861 54.8234 61.0868 53.5432 60.94C52.2666 60.7883 51.9875 60.7345 50.4058 60.6317C48.8279 60.529 47.1755 60.1033 46.8033 60.03C46.4274 59.9664 43.6325 58.6111 44.9685 56.248Z" fill="#A4CD39"/>
<path d="M35.0392 50.3721C34.9313 51.0032 34.868 50.9983 35.0578 51.6392C35.2476 52.2851 35.5937 51.7469 35.363 52.5101C35.1322 53.2734 33.9525 56.2284 33.8855 56.7226C33.8185 57.2118 33.5915 58.0778 33.5617 58.6258C33.5282 59.1737 33.5543 59.7902 33.1375 60.0104C32.7206 60.2305 31.9986 60.0886 31.6265 59.9174C31.2543 59.7413 30.4616 59.6924 30.5063 58.9878C30.5472 58.2931 30.7333 56.2578 30.8598 55.7245C30.9826 55.1912 29.8624 56.341 31.7828 52.4221C33.7031 48.4982 35.5342 47.4415 35.0392 50.3721Z" fill="#A4CD39"/>
<path d="M184.838 12.9345C184.838 12.9345 185.415 13.1204 187.484 12.6899C189.557 12.2593 190.116 12.2153 191.649 12.5137C193.186 12.8122 193.443 12.4844 193.532 12.8807C193.621 13.277 188.895 15.5373 187.994 16.7262C187.094 17.9151 187.179 17.7047 186.264 18.6636C185.345 19.6226 185.568 18.9816 184.563 19.9993C183.558 21.0169 182.698 19.8623 182.159 19.9846C181.619 20.1069 180.957 19.9748 179.219 20.6989C177.481 21.423 176.435 21.5209 176.156 21.3154C175.877 21.1099 174.902 21.3741 176.026 19.8476C177.15 18.3212 177.823 17.4699 178.344 17.1176C178.865 16.7653 179.383 15.3465 180.149 15.4982C180.916 15.6449 181.054 15.371 181.407 16.0461C181.761 16.7213 181.601 19.4171 182.055 16.7017C182.512 13.9913 182.315 13.2672 182.49 13.1498C182.665 13.0323 183.03 12.729 183.48 12.8171C183.934 12.91 184.838 12.9345 184.838 12.9345Z" fill="#A4CD39"/>
<path d="M42.8732 64.4185C42.5532 66.0722 40.0485 67.3834 37.2759 67.3443C34.5033 67.3002 32.5159 65.9156 32.836 64.2571C33.1561 62.5985 35.6607 61.2873 38.4296 61.3313C41.2059 61.3754 43.1933 62.7502 42.8732 64.4185Z" fill="#C0A056"/>
<path d="M43.063 62.3686C41.5558 66.0624 38.4519 67.3834 36.1334 65.3237C33.8148 63.2639 33.1561 58.6014 34.667 54.9075C36.178 51.2136 39.2781 49.8927 41.5967 51.9524C43.9153 54.0122 44.5703 58.6747 43.063 62.3686Z" fill="url(#paint7_radial)"/>
<path d="M40.6924 54.7216C40.4542 55.9496 39.4084 56.933 38.3552 56.9134C37.2982 56.8987 36.6358 55.886 36.8702 54.658C37.1084 53.4299 38.1542 52.4465 39.2112 52.4612C40.2644 52.4857 40.9305 53.4935 40.6924 54.7216Z" fill="#3B458C"/>
<path d="M137.886 45.3083C137.511 47.2605 139.595 48.8799 142.538 48.9239C145.482 48.9728 148.173 47.4317 148.549 45.4796C148.925 43.5275 146.841 41.908 143.901 41.8591C140.953 41.8151 138.266 43.3562 137.886 45.3083Z" fill="#C0A056"/>
<path d="M138.564 42.911C138.571 47.2849 141.277 48.9435 144.608 46.6146C147.939 44.2858 150.633 38.86 150.626 34.4812C150.618 30.1122 147.912 28.4487 144.582 30.7824C141.251 33.1113 138.556 38.542 138.564 42.911Z" fill="url(#paint8_radial)"/>
<path d="M144.351 34.0555C144.072 35.4988 144.757 36.6877 145.877 36.7073C146.997 36.722 148.132 35.5624 148.411 34.1191C148.69 32.6709 148.005 31.4869 146.885 31.4723C145.761 31.4527 144.626 32.6073 144.351 34.0555Z" fill="#3B458C"/>
<path d="M238.002 28.9673C237.042 33.3021 228.545 35.7532 219.022 34.4469C209.502 33.1406 202.561 28.571 203.521 24.2363C204.481 19.9064 212.978 17.4552 222.498 18.7615C232.021 20.0678 238.962 24.6374 238.002 28.9673Z" fill="#AA1F23"/>
<path d="M238.445 27.4164C237.485 31.7463 228.988 34.1974 219.468 32.896C209.945 31.5897 203.007 27.0152 203.964 22.6853C204.924 18.3554 213.424 15.8994 222.944 17.2057C232.464 18.5169 239.405 23.0865 238.445 27.4164Z" fill="#EC2027"/>
<path d="M235.028 24.9799C234.798 25.8312 233.558 26.1639 232.252 25.7236C230.949 25.2783 230.079 24.2264 230.306 23.3752C230.533 22.5239 231.776 22.1912 233.078 22.6315C234.388 23.0767 235.259 24.1286 235.028 24.9799Z" fill="#FBDBE4"/>
<path d="M221.701 24.8087C221.59 25.6697 220.32 26.6336 218.865 26.9711C217.406 27.3087 216.316 26.8831 216.428 26.0269C216.536 25.1707 217.805 24.202 219.264 23.8644C220.719 23.5317 221.813 23.9525 221.701 24.8087Z" fill="#FBDBE4"/>
<path d="M216.692 19.5101C216.58 20.3663 215.311 21.335 213.852 21.6726C212.397 22.0102 211.303 21.5845 211.415 20.7283C211.523 19.8721 212.795 18.9034 214.25 18.5658C215.709 18.2282 216.804 18.6539 216.692 19.5101Z" fill="#FBDBE4"/>
<path d="M208.114 96.6064C208.114 96.6064 216.056 103.745 211.143 114.655L209.654 114.997C209.654 114.997 214.816 107.008 208.073 98.2405C208.073 98.2356 206.015 95.6866 208.114 96.6064Z" fill="#CE9228"/>
<path d="M93.2715 100.202L89.0996 99.5224C89.0996 99.5224 81.4777 111.984 88.0798 119.229L90.1453 119.508C90.1453 119.508 82.717 109.958 93.2715 100.202Z" fill="#CE9228"/>
<path d="M10.5331 57.5201C10.5331 57.5201 2.69162 57.1874 0.4847 63.6553C0.4847 63.6553 0.149754 64.5751 0.261402 64.7072C0.376773 64.8344 2.33063 58.8557 10.6075 58.1121C10.6075 58.1121 11.0318 57.2363 10.5331 57.5201Z" fill="#CE9228"/>
<path d="M268.657 48.1607C268.657 48.1607 269.874 50.2156 268.731 53.019C267.585 55.8273 267.328 55.8811 265.46 58.4448C263.592 61.0134 262.993 62.1093 261.325 62.9948C259.658 63.8804 258.151 64.2962 257.779 64.2228C257.406 64.1495 261.035 60.5143 261.307 59.3548C261.578 58.1953 262.058 56.5709 262.17 56.2872C262.285 56.0083 262.784 53.6795 263.287 52.3634C263.793 51.0473 264.85 48.6206 265.423 48.0286C266.003 47.4415 268.117 47.1431 268.657 48.1607Z" fill="#FFDFA6"/>
<path d="M244.224 67.4519C243.916 67.7014 243.115 68.4451 241.683 69.9862C240.25 71.5274 238.754 73.5578 237.827 74.3895C236.9 75.2212 235.788 75.8132 235.002 76.0628C234.213 76.3123 233.517 76.3808 233.376 75.9453C233.235 75.5148 232.256 74.9179 233.502 73.7486C234.749 72.5744 234.887 71.7965 236.554 71.1115C238.225 70.4266 247.351 64.9274 244.224 67.4519Z" fill="#FFDFA6"/>
<path d="M235.456 52.2411C235.665 52.2851 238.035 52.1383 238.94 51.8594C239.844 51.5757 241.623 51.6197 242.077 51.7078C242.531 51.7958 243.227 51.6295 243.283 52.3193C243.335 53.0141 243.153 54.4182 242.65 55.0004C242.148 55.5826 241.296 55.6462 240.953 56.9428C240.611 58.2393 240.7 61.7423 239.658 59.6483C238.62 57.5494 238.195 56.7128 237.671 56.1551C237.146 55.5973 235.747 54.7167 234.891 54.4769C234.035 54.2372 233.127 54.0611 231.627 53.7675C230.127 53.474 228.575 53.2489 228.192 53.0239C227.808 52.7939 227.429 50.2205 227.86 50.0786C228.296 49.9367 229.148 49.5746 230.231 50.0884C231.314 50.6021 232.274 51.013 233.115 51.4778C233.956 51.9475 235.456 52.2411 235.456 52.2411Z" fill="#FFDFA6"/>
<path d="M138.761 53.2244C138.854 53.2929 139.033 51.7616 139.461 54.1247C139.892 56.478 139.803 56.2333 139.967 57.251C140.127 58.2637 140.011 58.7725 140.186 59.1101C140.361 59.4477 140.451 59.5456 140.402 60.2158C140.354 60.891 140.037 60.5241 139.472 59.2031C138.906 57.8821 138.489 57.6473 138.292 56.7813C138.095 55.9006 137.537 52.3829 138.761 53.2244Z" fill="#A4CD39"/>
<path d="M29.1404 115.81C32.7765 119.508 36.472 123.114 40.2086 126.637C39.6243 121.637 33.0928 117.737 29.1404 115.81Z" fill="#A06D3C"/>
<path d="M28.5859 115.252C38.4743 118.305 73.0072 128.966 28.4073 115.066C28.4668 115.125 28.5264 115.188 28.5859 115.252Z" fill="#A06D3C"/>
<path d="M176.271 134.568C176.271 134.568 111.228 144.773 80.0523 132.85C80.0523 132.85 63.3608 135.59 84.2428 141.691C105.125 147.792 203.819 140.845 176.271 134.568Z" fill="#A87340"/>
<path d="M97.116 156.188C97.116 156.188 36.3939 145.253 13.2826 95.9557C13.2826 95.9557 23.8967 102.849 34.4252 107.536C34.4252 107.536 33.3422 124.538 97.116 156.188Z" fill="#83592F"/>
<path d="M30.1378 102.34C30.1378 102.34 32.9402 94.9528 28.6045 86.3566C28.2845 85.7255 23.2528 80.6324 16.6023 77.7604C9.95173 74.8836 0.625328 60.2305 3.13371 54.8977C3.12998 54.8977 -13.5615 79.9327 30.1378 102.34Z" fill="#D2A224"/>
<defs>
<radialGradient id="paint0_radial" cx="0" cy="0" r="1" gradientUnits="userSpaceOnUse" gradientTransform="translate(32.9153 70.9781) rotate(-45.9341) scale(11.0454 9.56223)">
<stop stop-color="#FFE31E"/>
<stop offset="0.4537" stop-color="#FFE21F"/>
<stop offset="0.6691" stop-color="#FFDC21"/>
<stop offset="0.8343" stop-color="#FFD324"/>
<stop offset="0.973" stop-color="#FFC628"/>
<stop offset="1" stop-color="#FFC328"/>
</radialGradient>
<radialGradient id="paint1_radial" cx="0" cy="0" r="1" gradientUnits="userSpaceOnUse" gradientTransform="translate(139.11 92.068) rotate(-178.506) scale(117.17 236.965)">
<stop stop-color="#8B5E3C"/>
<stop offset="0.4923" stop-color="#895C3A"/>
<stop offset="0.6696" stop-color="#855835"/>
<stop offset="0.796" stop-color="#7C512D"/>
<stop offset="0.898" stop-color="#714723"/>
<stop offset="0.9845" stop-color="#633B16"/>
<stop offset="1" stop-color="#603913"/>
</radialGradient>
<radialGradient id="paint2_radial" cx="0" cy="0" r="1" gradientUnits="userSpaceOnUse" gradientTransform="translate(185.431 53.0979) rotate(-156.974) scale(5.56147 11.4349)">
<stop stop-color="#341C59"/>
<stop offset="1" stop-color="#10102E"/>
</radialGradient>
<radialGradient id="paint3_radial" cx="0" cy="0" r="1" gradientUnits="userSpaceOnUse" gradientTransform="translate(89.619 18.4321) rotate(-58.0456) scale(9.95259 5.19859)">
<stop stop-color="#341C59"/>
<stop offset="1" stop-color="#10102E"/>
</radialGradient>
<radialGradient id="paint4_radial" cx="0" cy="0" r="1" gradientUnits="userSpaceOnUse" gradientTransform="translate(88.5157 63.266) rotate(-153.499) scale(4.35185 10.1135)">
<stop stop-color="#341C59"/>
<stop offset="1" stop-color="#10102E"/>
</radialGradient>
<radialGradient id="paint5_radial" cx="0" cy="0" r="1" gradientUnits="userSpaceOnUse" gradientTransform="translate(167.377 9.34877) rotate(-19.1011) scale(5.5066 9.12219)">
<stop stop-color="#341C59"/>
<stop offset="1" stop-color="#10102E"/>
</radialGradient>
<radialGradient id="paint6_radial" cx="0" cy="0" r="1" gradientUnits="userSpaceOnUse" gradientTransform="translate(246.62 53.8464) rotate(-17.1757) scale(3.77842 5.78433)">
<stop stop-color="#341C59"/>
<stop offset="1" stop-color="#10102E"/>
</radialGradient>
<radialGradient id="paint7_radial" cx="0" cy="0" r="1" gradientUnits="userSpaceOnUse" gradientTransform="translate(38.8584 58.6581) rotate(-158.542) scale(4.56016 8.78818)">
<stop stop-color="#341C59"/>
<stop offset="1" stop-color="#10102E"/>
</radialGradient>
<radialGradient id="paint8_radial" cx="0" cy="0" r="1" gradientUnits="userSpaceOnUse" gradientTransform="translate(144.559 38.7094) rotate(-19.101) scale(5.50592 9.12102)">
<stop stop-color="#341C59"/>
<stop offset="1" stop-color="#10102E"/>
</radialGradient>
</defs>
</svg>
