<svg width="29" height="26" viewBox="0 0 29 26" fill="none" xmlns="http://www.w3.org/2000/svg">
<path d="M28.9909 4.1695C28.9408 3.65897 28.7003 3.19823 28.3108 2.87187L25.3966 0.434994C24.5934 -0.235717 23.4041 -0.118133 22.7429 0.700159L10.4909 15.8787L5.56774 11.5851C4.77806 10.8994 3.58645 10.99 2.90873 11.7939L0.454804 14.7095C0.126552 15.0988 -0.0331535 15.5938 0.00574162 16.1055C0.0446368 16.6172 0.27624 17.0834 0.659298 17.4163L9.96643 25.5381C10.3124 25.8386 10.7408 26 11.191 26C11.2464 26 11.303 25.9976 11.3596 25.9922C11.8688 25.946 12.3278 25.6988 12.652 25.2987L28.5707 5.57451C28.8913 5.17916 29.0398 4.67883 28.9909 4.1695Z" fill="#2196F3"/>
</svg>
